<svg width="157" height="80" viewBox="0 0 157 80" fill="none" xmlns="http://www.w3.org/2000/svg">
<rect width="157" height="80" fill="white"/>
<path d="M3.55957 67H39.4796L40.1196 54.04H32.5996L31.9596 60.44L14.3596 60.44C15.3996 59.48 16.3596 58.68 17.2396 57.64L39.7996 32.12L39.7996 25.4L5.23957 25.4L4.59957 38.12H12.1196L12.7596 31.96L28.9196 31.96C28.2796 32.52 27.3196 33.32 26.5996 34.12L3.55957 60.44L3.55957 67Z" fill="black"/>
<path d="M55.4083 46.76C55.4083 39.4 58.6883 31.96 67.5683 31.96C73.8083 31.96 78.6883 36.12 78.6883 45.48C78.6883 53.64 75.0883 60.44 66.9283 60.44C58.8483 60.44 55.4083 53.72 55.4083 46.76ZM45.9683 47.08C45.9683 57.64 51.8083 67.96 66.6883 67.96C80.9283 67.96 88.1283 58.28 88.1283 46.44C88.1283 36.2 83.0883 24.44 67.7283 24.44C55.0083 24.44 45.9683 33.48 45.9683 47.08Z" fill="black"/>
<path d="M94.2702 67L114.67 67V60.44L108.27 60.44L108.43 31.96H118.19V25.4H108.43L108.59 20.68C108.75 15.72 111.31 11.56 118.19 11.56C121.63 11.56 123.79 12.04 124.91 12.52L125.23 5.48002C123.55 5.16002 120.67 4.52002 117.15 4.52002C107.39 4.52002 99.9502 8.84002 99.6302 19.72L99.4702 25.4H93.1502V31.96H99.4702L99.3102 60.44H94.2702V67Z" fill="black"/>
<path d="M122.395 67H142.795V60.44H136.395L136.555 31.96H146.315V25.4H136.555L136.715 20.68C136.875 15.72 139.435 11.56 146.315 11.56C149.755 11.56 151.915 12.04 153.035 12.52L153.355 5.48002C151.675 5.16002 148.795 4.52002 145.275 4.52002C135.515 4.52002 128.075 8.84002 127.755 19.72L127.595 25.4L121.275 25.4V31.96L127.595 31.96L127.435 60.44H122.395V67Z" fill="black"/>
</svg>
