<svg width="157" height="80" viewBox="0 0 157 80" fill="none" xmlns="http://www.w3.org/2000/svg">
<rect width="157" height="80" fill="none"/>
<path d="M3.55938 67H39.4794L40.1194 54.04H32.5994L31.9594 60.44L14.3594 60.44C15.3994 59.48 16.3594 58.68 17.2394 57.64L39.7994 32.12L39.7994 25.4L5.23938 25.4L4.59938 38.12H12.1194L12.7594 31.96H28.9194C28.2794 32.52 27.3194 33.32 26.5994 34.12L3.55938 60.44L3.55938 67Z" fill="black"/>
<path d="M55.4081 46.76C55.4081 39.4 58.6881 31.96 67.5681 31.96C73.8081 31.96 78.6881 36.12 78.6881 45.48C78.6881 53.64 75.0881 60.44 66.9281 60.44C58.8481 60.44 55.4081 53.72 55.4081 46.76ZM45.9681 47.08C45.9681 57.64 51.8081 67.96 66.6881 67.96C80.9281 67.96 88.1281 58.28 88.1281 46.44C88.1281 36.2 83.0881 24.44 67.7281 24.44C55.0081 24.44 45.9681 33.48 45.9681 47.08Z" fill="black"/>
<path d="M94.27 67L114.67 67V60.44L108.27 60.44L108.43 31.96H118.19V25.4H108.43L108.59 20.68C108.75 15.72 111.31 11.56 118.19 11.56C121.63 11.56 123.79 12.04 124.91 12.52L125.23 5.48002C123.55 5.16002 120.67 4.52002 117.15 4.52002C107.39 4.52002 99.95 8.84002 99.63 19.72L99.47 25.4H93.15V31.96H99.47L99.31 60.44H94.27V67Z" fill="black"/>
<path d="M122.395 67H142.795V60.44H136.395L136.555 31.96L146.315 31.96V25.4L136.555 25.4L136.715 20.68C136.875 15.72 139.435 11.56 146.315 11.56C149.755 11.56 151.915 12.04 153.035 12.52L153.355 5.48002C151.675 5.16002 148.795 4.52002 145.275 4.52002C135.515 4.52002 128.075 8.84002 127.755 19.72L127.595 25.4L121.275 25.4V31.96L127.595 31.96L127.435 60.44H122.395V67Z" fill="black"/>
<path d="M0.359375 75L147.035 75V79L0.359375 79L0.359375 75Z" fill="black"/>
</svg>
